<svg xmlns="http://www.w3.org/2000/svg" viewBox="0 212.702 600 174.596"><path fill="#FFB819" d="M156.028 241.524c-20.37.416-45.035 18.29-71.085 18.29-11.224 0-21.617-3.602-20.924-7.205.83-3.61 11.08-4.85 20.23-4.16 10.94.83 15.24 3.18 20.92 3.46 4.85.27 5.54-2.08 2.49-2.36-5.96-.56-17.19-4.99-29.52-5.13-12.47-.14-20.09 3.05-20.79 8.73-.56 4.57 7.9 11.22 26.6 11.36 24.53.28 51.69-18.43 72.06-18.57 10.25-.14 20.37 1.94 19.53 6.79-.83 4.99-9.01 6.23-18.29 6.37-10.81.14-17.6-4.44-23.97-4.3-5.41.14-4.16 2.21-3.05 2.21 7.62.14 18.29 6.37 30.76 6.23 13.16-.14 19.67-4.71 20.09-10.81.41-5.82-7.21-11.22-25.08-10.95z"/><path d="M230.023 338.383c-6.74-11.027-28.33-17.057-60.446-4.8-.67-5.76-3.084-21.615-3.572-25.27-.554-4.02-2.632-11.362-4.85-13.996-2.218-2.633-5.543-5.266-11.5-5.958-9.285-1.25-27.022 5.95-33.673 8.17-14.965 4.99-16.905 2.08-11.5-2.64 2.91-2.5 1.94-5.82-7.068-.97-3.88 2.08-5.958 6.37-5.266 8.73 1.247 4.15 5.404 4.99 13.302 3.46 8.87-1.66 16.35-5.13 25.497-8.59 6.374-2.5 10.254-3.61 14.272-4.16 3.74-.56 10.11.14 12.47 6.09 2.91 7.62 2.63 14.69 3.05 27.57.16 5.22.06 8.89.26 11.13-1.5.69-3.02 1.4-4.56 2.16-19.26 9.28-50.86 33.67-81.62 35.33-27.3 1.52-64.3-9.42-66.1-25.64-1.67-15.1 20.78-20.37 35.47-20.37 11.17 0 21.92 2.74 28.69 3.53-1.53 12.21-5.31 22.48-18.44 25.57-8.18 1.94-1.94 5.13 4.85 3.88 21.75-4.02 18.43-30.9 21.89-56.54.55-4.02 4.57-13.03 15.38-17.19 6.27-2.45 11.91-4.4 21.44-4.8l.03.5c.27 3.46.41 5.4 1.66 5.96 1.94.69 3.6-.28 4.02-2.08.25-1 .19-3 .11-4.44 1.29.02 2.61.06 4.04.14 8.31.41 14.82 3.88 17.59 2.63 2.91-1.38-3.33-3.05-3.33-3.05s-6.3-2.5-18.5-2.63c-.26-4.24-1.1-18.02-1.45-20.24-.28-2.49-5.27.28-5.13 3.05 0 .93.39 10.74.76 17.31-3.38.17-7.09.52-11.15 1.12-23.28 3.47-30.07 16.22-31.18 22.17-1.43 8.18-1.49 17.25-2.3 25.64-6.43-.92-15.79-3.88-29.02-3.88-18.02 0-46.01 4.99-44.21 23.98 2.08 22.58 46.28 33.53 76.77 30.76 43.09-3.88 75.24-32.7 96.72-41.99 10.95-4.72 38.66-11.92 48.64 1.24 10.39 13.72-8.18 32.43-44.9 32.43-13.16 0-23.42-.42-33.53-1.94-10.12-1.8-13.86-1.66-14.14 0-.42 1.8 17.04 7.62 43.51 7.62 62.21 0 62.63-29.51 56.95-39.07zm-15.658-113.21H210.9c-1.246 0-1.662-.554-1.662-1.8v-4.158c0-1.524.416-1.8 1.94-1.8h26.19c16.35 0 25.496 4.294 25.496 17.18 0 10.117-6.097 14.69-12.194 15.66v.138c9.56 1.108 16.212 7.206 16.212 17.875 0 17.32-12.887 19.815-28.684 19.815h-27.16c-1.247 0-1.8-.277-1.8-1.8v-3.88c0-1.525.553-1.94 1.662-1.94 5.404 0 6.513-.694 6.513-4.574v-46.84c-.138-2.64-.83-3.61-3.048-3.88zm13.995 21.478h10.53c8.73 0 12.472-3.46 12.472-11.36 0-8.45-5.404-10.11-12.61-10.11h-10.254c-.138 7.21-.138 14.28-.138 21.48zm0 33.95h11.085c7.344 0 15.658-1.52 15.658-12.19 0-10.25-6.236-13.72-16.49-13.72h-10.115c-.138 8.73-.138 17.32-.138 25.91zm65.127.14h2.355c1.524 0 1.802.42 1.802 1.53v4.3c0 1.39-.555 1.8-1.802 1.8h-23.695c-1.386 0-1.802-.41-1.802-1.8v-4.29c0-1.11.14-1.52 1.802-1.52h2.355c3.187 0 4.295-.55 4.295-4.16v-28.55c0-2.49-.692-3.46-2.77-3.46-1.11 0-2.218 0-3.327-.14-1.524-.13-1.8-.83-1.8-2.07v-3.61c0-1.52.415-1.8 1.8-1.8 4.71-.28 9.56-.55 14.272-.83 1.8 0 2.217.83 2.217 2.77v37.83c0 3.33 1.11 4.02 4.29 4.02zm-9.423-64.99c3.464 0 6.513 2.91 6.513 7.07 0 4.58-3.464 7.21-7.344 7.21-3.464 0-6.236-2.49-6.236-6.65-.138-4.57 3.05-7.62 7.067-7.62zm38.662 96.86c-10.81 0-20.786-3.88-20.786-15.52 0-3.88 3.05-6.65 6.236-6.65 3.188 0 5.958 2.5 5.958 6.24 0 2.22-1.107 4.16-2.494 5.13 2.494 1.81 6.514 2.77 10.81 2.77 9.423 0 15.52-5.26 15.52-20.09v-5.82c-3.464 6.24-8.313 10.53-17.6 10.53-12.47 0-19.676-7.9-19.676-23.55 0-15.52 7.482-30.62 24.11-30.62 5.82 0 10.254 1.8 13.164 5.55v-1.94c0-1.94.555-2.77 2.217-2.77l13.72.84c1.386.14 1.8.42 1.8 1.8v4.16c0 1.11-.553 1.39-1.8 1.8h-2.77c-2.22.42-2.772 1.11-2.91 3.47v35.47c.135 20.51-10.12 29.24-25.5 29.24zm15.242-53.62c0-12.47-4.85-16.21-11.086-16.21-10.393 0-15.38 10.4-15.38 22.17 0 9.56 3.325 16.08 11.36 16.08 8.87 0 15.106-8.04 15.106-22.03zm96.72 30.07h-2.77c-1.11 0-2.08-.14-2.772-1.25-12.888-17.32-25.636-34.78-38.52-52.1V277c0 3.186 1.107 3.74 4.294 3.74H397c1.522 0 1.8.137 1.8 1.523v4.296c0 1.52-.415 1.8-1.8 1.8h-21.48c-1.386 0-1.8-.28-1.8-1.8v-4.16c0-1.25.275-1.53 1.8-1.53h2.08c3.187 0 4.434-.7 4.434-3.74v-48.5c-.14-2.77-1.386-3.47-4.02-3.47h-2.217c-1.523 0-1.802-.28-1.802-1.39v-4.44s.416-1.66 1.802-1.66h12.887c1.524 0 2.494.55 3.188 1.52 12.193 16.9 24.25 33.81 36.443 50.85v-41.01c0-3.19-1.11-3.74-4.297-3.74h-2.078c-1.523 0-1.802-.14-1.802-1.53v-4.16c0-1.53.416-1.8 1.802-1.8h21.48c1.385 0 1.8.27 1.8 1.8v4.15c0 1.24-.275 1.52-1.8 1.52h-1.94c-3.187 0-4.435.69-4.435 3.74v58.61c-.278.97-.694 1.38-2.357 1.38zm56.952-37.13c0 9.84-6.234 16.49-20.646 16.49-4.436 0-8.868-.55-12.887-1.8.97 10.12 5.68 14.28 15.52 14.28 5.682 0 10.67-1.39 13.164-2.35 2.22-.83 3.33-1.52 4.16-1.52.69 0 .83.42.83 1.11v4.57c0 1.11-.27 1.8-1.94 2.63-3.18 1.67-10.11 3.33-17.04 3.33-18.15 0-25.63-10.67-25.63-26.46 0-16.49 8.04-27.57 23.84-27.57 13.3.41 20.65 6.51 20.65 17.32zm-33.672 7.48c4.157 1.11 8.59 1.8 12.194 1.8 7.76 0 11.777-3.18 11.777-9.56s-3.89-9.14-11.23-9.14c-7.9-.14-12.06 6.1-12.75 16.91zm41.847-15.1c-1.247 0-1.663-.55-1.663-1.8v-4.02c0-1.38.416-1.8 1.802-1.8l14.134-.83c1.8 0 2.217.83 2.217 2.77v10.26c1.387-4.85 5.82-13.99 16.49-13.99 7.205 0 10.115 3.88 10.115 9.56 0 3.88-3.05 6.52-6.374 6.52-3.188 0-5.82-2.35-5.82-6.1 0-.83.14-1.52.416-2.22-9.423.28-14.688 14.14-14.688 24.53v9.42c0 3.6 1.107 4.16 4.296 4.16h4.295c1.523 0 1.802.42 1.802 1.53v4.44c0 1.24-.416 1.66-1.802 1.66H499.4c-1.387 0-1.803-.42-1.803-1.8v-4.3c0-1.11.277-1.52 1.803-1.52h2.217c3.188 0 4.435-.83 4.435-4.15v-28.55c0-3.05-.832-3.74-6.237-3.74zm81.895-5.12V225.6c0-2.636-.832-3.467-2.91-3.606h-3.326c-1.523-.14-1.663-.83-1.663-2.08v-3.6c0-1.664.28-1.8 1.67-1.94 4.71-.278 9.56-.555 14.27-.83 1.8 0 2.36.83 2.36 2.77v60.276c0 2.91.97 4.295 2.91 4.295 1.8 0 2.22-.416 3.33-.554.83-.13 1.11 0 1.11.97v4.44c0 .83-.14 1.66-1.24 2.08-1.66.55-3.19.83-6.79.83-4.02 0-8.45-1.38-9.56-7.21-4.16 5.82-10.26 8.04-16.91 8.04-11.5 0-19.67-7.2-19.67-24.8 0-18.57 8.59-29.51 23.42-29.51 5.83.01 9.57 1.81 13.03 4.02zm0 23.56v-15.66c-2.218-2.08-6.514-3.74-11.087-3.74-10.393 0-14.55 9.42-14.55 20.65 0 9.84 3.326 17.32 11.64 17.32 8.453.14 12.888-6.37 13.996-18.57zM276.86 356.7v16.49c0 4.02 1.107 4.57 4.156 4.57h2.217c1.663 0 1.8.28 1.8 1.524v4.29c0 1.247-.415 1.8-1.8 1.8h-23.695c-1.386 0-1.8-.414-1.8-1.8v-4.296c0-1.11.276-1.526 1.8-1.526h2.217c3.187 0 4.157-.83 4.157-4.57v-46.84c0-2.77-.83-3.88-3.048-4.153H259.4c-1.247 0-1.663-.56-1.663-1.8v-4.16c0-1.53.416-1.8 1.94-1.8h23.14c18.71 0 27.854 5.54 27.854 20.78 0 10.81-5.54 17.32-14.13 19.95 4.44 2.77 7.21 8.31 11.64 19.39 1.11 2.77 2.36 3.46 4.16 3.46 1.11 0 2.5-.27 3.88-.83 1.11-.55 1.53-.13 1.53.84v4.15c0 1.38-.41 1.8-1.8 2.49-1.66.83-4.43 1.52-7.34 1.52-3.74 0-7.62-.55-10.8-7.9-3.18-7.63-6.79-21.9-16.49-21.9-1.52.28-3.04.28-4.43.28zm7.204-7.484c10.116 0 14.827-4.43 14.827-13.85 0-9.563-5.4-13.304-15.52-13.304h-6.51v27.16h7.21zm60.832-17.18c13.44 0 20.784 4.02 20.784 19.54v22.03c0 2.91.97 4.295 2.91 4.295 1.8 0 2.217-.42 3.325-.55.83-.14 1.247 0 1.247.97v4.44c0 .83-.277 1.67-1.386 2.08-1.524.56-3.05.83-6.79.83-3.88 0-8.177-1.24-9.423-6.51-3.325 3.88-9.008 6.65-17.045 6.65-10.808 0-16.212-4.71-16.212-14.13 0-13.44 11.225-17.18 28.685-17.18h4.16v-3.19c0-8.59-2.91-11.5-10.53-11.5-3.05 0-6.1.42-8.45 1.53.56.84.97 2.08.97 3.47 0 3.88-3.05 6.51-6.51 6.51-3.18 0-5.82-2.35-5.82-6.1.28-9.56 7.35-13.16 20.1-13.16zm-3.88 46.28c8.314 0 14.412-5.26 14.412-14.55v-2.213h-4.156c-11.778 0-18.43 2.49-18.43 9.84-.14 4.293 2.077 6.926 8.175 6.926zm39.354-37c-1.248 0-1.663-.553-1.663-1.8v-4.02c0-1.386.415-1.802 1.8-1.802 4.574-.274 9.147-.553 13.72-.83 1.802 0 2.218.83 2.218 2.77v6.654c2.77-7.21 9.562-10.4 17.46-10.4 9.146 0 15.935 4.85 15.935 17.18v24.53c0 2.91.97 4.295 2.91 4.295 1.802 0 2.354-.416 3.465-.554.83-.14 1.108 0 1.108.97v4.43c0 .83-.277 1.66-1.387 2.07-1.523.56-3.05.83-6.79.83-4.435 0-9.7-1.8-9.7-9.98V350.6c0-5.82-2.493-9.98-9.145-9.98-8.86 0-13.43 7.76-13.43 21.062v11.776c0 3.6 1.11 4.157 4.3 4.157h2.36c1.53 0 1.8.417 1.8 1.525v4.294s-.55 1.806-1.8 1.806h-23.7c-1.38 0-1.8-.42-1.8-1.805v-4.294c0-1.11.14-1.52 1.81-1.52h2.35c3.19 0 4.29-.55 4.29-4.15V344.2c0-2.352-.97-2.768-6.1-2.907zm88.82 36.028c7.483 0 12.334-2.215 14.827-3.186 2.218-.83 2.77-.83 2.77 1.1v4.577c0 1.387-.276 1.8-1.385 2.355-2.08 1.11-8.593 3.603-17.875 3.603-18.847 0-27.16-9.98-27.16-26.19 0-17.736 10.393-27.854 26.467-27.854 14.134 0 19.122 7.62 19.122 13.72 0 4.02-2.494 6.93-6.65 6.93-3.88 0-6.79-2.64-6.79-6.65 0-1.94.692-3.61 1.802-4.85-1.94-.7-4.435-1.11-7.482-1.11-11.5 0-15.52 8.73-15.52 19.12.278 11.78 5.266 18.43 17.875 18.43zm41.71-16.63v13.58c.14 2.91 1.246 3.467 4.296 3.467h2.354c1.524 0 1.802.42 1.802 1.53v4.3c0 1.39-.416 1.8-1.802 1.8h-23.695c-1.522 0-1.8-.41-1.8-1.8v-4.29c0-1.11.276-1.52 1.8-1.52h2.356c2.91 0 4.16-.55 4.3-3.46V322.5c0-2.493-.83-3.46-2.91-3.46-1.1 0-2.21 0-3.32-.14-1.52-.14-1.66-.83-1.66-2.08v-3.6c0-1.528.28-1.806 1.66-1.806 4.72-.28 9.57-.56 14.28-.84 1.8 0 2.36.83 2.36 2.77v27.58c3.05-6.093 9.43-8.864 16.91-8.864 9.28 0 16.07 4.85 16.07 17.18v24.53c0 2.91.97 4.29 2.91 4.29 1.8 0 2.22-.416 3.33-.555.84-.14 1.11 0 1.11.97v4.436c0 .83-.14 1.67-1.24 2.08-1.66.56-3.19.83-6.79.83-4.57 0-9.7-1.8-9.7-9.98v-25.08c0-5.82-2.49-9.98-9.14-9.98-8.86.01-13.16 7.35-13.43 19.96z" fill="#fff"/></svg>
